<svg width="14" height="14" viewBox="0 0 14 14" fill="none" xmlns="http://www.w3.org/2000/svg">
<path d="M12.8766 9.1894C12.0195 9.1894 11.1779 9.05534 10.3804 8.79178C9.98956 8.65849 9.50915 8.78077 9.27064 9.02573L7.69648 10.2141C5.87091 9.23956 4.74639 8.11541 3.7852 6.30354L4.93856 4.77039C5.23821 4.47114 5.34569 4.03401 5.21692 3.62385C4.95223 2.82213 4.81777 1.98093 4.81777 1.12343C4.81781 0.503964 4.31385 0 3.69442 0H1.12339C0.503962 0 0 0.503964 0 1.12339C0 8.22365 5.77637 14 12.8766 14C13.496 14 14 13.496 14 12.8766V10.3127C14 9.69336 13.496 9.1894 12.8766 9.1894Z" fill="white"/>
</svg>
